static_grf.mot
version=1
nRows=15
nColumns 19
inDegrees=yes
endheader
time	1_ground_force_vx	1_ground_force_vy	1_ground_force_vz	1_ground_force_px	1_ground_force_py	1_ground_force_pz	1_ground_torque_x	1_ground_torque_y	1_ground_torque_z	2_ground_force_vx	2_ground_force_vy	2_ground_force_vz	2_ground_force_px	2_ground_force_py	2_ground_force_pz	2_ground_torque_x	2_ground_torque_y	2_ground_torque_z
            1.501500	            3.783966	          382.137107	          -34.139489	           -0.324233	            0.006183	           -0.399879	            0.010743	            1.084909	           -0.096924	           -4.274428	          388.813230	           80.369606	           -0.302381	            0.005509	           -0.730567	            0.136359	          -12.403603	           -2.563886
            1.502000	            3.921070	          383.219121	          -34.226904	           -0.323872	            0.006181	           -0.399285	            0.010666	            1.042393	           -0.093100	           -4.087590	          388.997211	           80.604816	           -0.302208	            0.005510	           -0.730534	            0.130866	          -12.453936	           -2.580603
            1.502500	            3.966685	          383.219523	          -34.318730	           -0.323889	            0.006182	           -0.399684	            0.011925	            1.152029	           -0.103169	           -4.084973	          388.260983	           80.508332	           -0.302647	            0.005509	           -0.730677	            0.130635	          -12.416328	           -2.574603
            1.503000	            4.195786	          383.219764	          -34.365159	           -0.324204	            0.006181	           -0.399392	            0.012728	            1.162487	           -0.104246	           -4.135125	          389.181350	           80.558573	           -0.302159	            0.005511	           -0.730917	            0.131808	          -12.405227	           -2.567819
            1.503500	            3.691693	          382.858938	          -34.319593	           -0.324365	            0.006181	           -0.399431	            0.010434	            1.082104	           -0.097000	           -3.712914	          388.999568	           80.323088	           -0.302105	            0.005512	           -0.730951	            0.118532	          -12.418522	           -2.564255
            1.504000	            4.058227	          382.138536	          -34.461167	           -0.324183	            0.006182	           -0.399567	            0.012222	            1.150894	           -0.103787	           -4.086323	          388.629431	           80.462726	           -0.302199	            0.005510	           -0.730533	            0.130639	          -12.424433	           -2.572383
            1.504500	            4.104505	          384.120061	          -34.131783	           -0.323673	            0.006181	           -0.399324	            0.011852	            1.109129	           -0.098554	           -3.850621	          388.260992	           80.742880	           -0.302263	            0.005511	           -0.730889	            0.123621	          -12.464759	           -2.592175
            1.505000	            3.920842	          383.219514	          -34.318616	           -0.324134	            0.006181	           -0.399291	            0.011982	            1.171119	           -0.104878	           -3.945047	          388.445296	           80.602785	           -0.302474	            0.005510	           -0.730881	            0.126851	          -12.490290	           -2.591748
            1.505500	            3.783086	          383.219881	          -34.409987	           -0.324229	            0.006181	           -0.399355	            0.010297	            1.043036	           -0.093656	           -4.038020	          388.260315	           80.742960	           -0.302454	            0.005509	           -0.730583	            0.129685	          -12.469323	           -2.593131
            1.506000	            4.057637	          384.121821	          -34.544376	           -0.323522	            0.006180	           -0.399223	            0.011978	            1.133885	           -0.101971	           -4.275778	          389.181679	           80.323984	           -0.302463	            0.005511	           -0.731099	            0.136429	          -12.417745	           -2.562923
            1.506500	            3.828863	          383.580421	          -34.408555	           -0.324019	            0.006181	           -0.399461	            0.011329	            1.134956	           -0.101810	           -4.276299	          389.364709	           80.653146	           -0.302480	            0.005510	           -0.730857	            0.136849	          -12.460329	           -2.581037
            1.507000	            3.921414	          381.957034	          -34.186463	           -0.324048	            0.006184	           -0.400147	            0.011804	            1.149705	           -0.102903	           -4.041467	          389.182023	           80.464677	           -0.302160	            0.005512	           -0.731070	            0.128957	          -12.418234	           -2.567511
            1.507500	            3.921217	          383.038628	          -34.181825	           -0.324290	            0.006182	           -0.399639	            0.011459	            1.119354	           -0.099890	           -3.995117	          389.365054	           80.840739	           -0.301975	            0.005512	           -0.731025	            0.127972	          -12.472145	           -2.589491
            1.508000	            4.058746	          383.038655	          -34.182167	           -0.324218	            0.006181	           -0.399490	            0.012136	            1.145361	           -0.102211	           -4.134522	          388.997711	           80.417124	           -0.302292	            0.005511	           -0.731013	            0.131961	          -12.415615	           -2.566668
            1.508500	            3.691481	          383.399901	          -34.363134	           -0.324233	            0.006181	           -0.399477	            0.010593	            1.100167	           -0.098605	           -4.088337	          389.182021	           80.417761	           -0.301931	            0.005512	           -0.730825	            0.130270	          -12.400846	           -2.562421
